# xmcd
#
# Track frame offsets:
#        150
#        20491
#        36936
#        50833
#        65303
#        81999
#        98251
#        111666
#        137302
#        151214
#        170435
#        192464
#        213948
#        253082
#        276697
#        318615
#        339423
#
# Disc length: 4775 seconds
#
# Revision: 0
# Processed by: cddbd v1.5.1PL0 Copyright (c) Steve Scherf et al.
# Submitted via: ExactAudioCopy v0.95a5
#
DISCID=fa12a511
DTITLE=Yo La Tengo - A Smattering Of Outtakes And Rarities 1986-2002 D
DTITLE=isk3
DYEAR=2005
DGENRE=Rock
TTITLE0=Stay Away From Heaven
TTITLE1=Pencil Test
TTITLE2=Almost True
TTITLE3=Tom Courtenay(Acoustic)
TTITLE4=Big Day Coming(demo)
TTITLE5=Dreaming
TTITLE6=Bad Politics
TTITLE7=Blue - Green Arrow
TTITLE8=Decora(Acoustic)
TTITLE9=Out the Window(Original Version)
TTITLE10=Weather Shy
TTITLE11=Dreams
TTITLE12=Autumn Seater'Remixed by Kevin Shelds)
TTITLE13=Ashes on the Ground
TTITLE14=Mr Ameche Plays the Stranger
TTITLE15=Dan Electro #2
TTITLE16=Magnet
EXTD=
EXTT0=
EXTT1=
EXTT2=
EXTT3=
EXTT4=
EXTT5=
EXTT6=
EXTT7=
EXTT8=
EXTT9=
EXTT10=
EXTT11=
EXTT12=
EXTT13=
EXTT14=
EXTT15=
EXTT16=
PLAYORDER=
